<?xml version="1.0" encoding="utf-8"?>
<!-- Generator: Adobe Illustrator 19.1.0, SVG Export Plug-In . SVG Version: 6.00 Build 0)  -->
<svg version="1.1" id="Layer_1" xmlns="http://www.w3.org/2000/svg" xmlns:xlink="http://www.w3.org/1999/xlink" x="0px" y="0px"
	 width="2000px" height="2000px" viewBox="0 0 2000 2000" style="enable-background:new 0 0 2000 2000;" xml:space="preserve">
<style type="text/css">
	.st0{fill:#FFFFFF;}
	.st1{fill:#FF8200;}
	.st2{fill:#43B02A;}
</style>
<circle class="st0" cx="1000" cy="1000" r="1000"/>
<path class="st1" d="M1237.66736,798.12366c82.85498,83.25916,150.59497,219.58429,111.81982,300.57117
	c-103.70813,216.60474-877.4519,596.45459-943.18604,530.72449c-65.73007-65.73401,314.41153-839.76562,531.01636-943.47382
	c80.99823-38.78467,217.3465,28.98413,300.60651,111.85504C1237.92407,797.80054,1237.83765,797.90936,1237.66736,798.12366z"/>
<path class="st2" d="M1647.58472,706.68079l0.00781-0.00415c-13.47278-49.82147-47.81104-100.15356-99.07129-106.11572
	c-94.00903-10.93542-242.20874,155.27649-231.63391,194.72986c10.57056,39.45343,219.92834,108.98944,298.13806,52.78027
	c40.31274-28.97198,45.98303-91.55273,32.74146-141.43903L1647.58472,706.68079z M1356.61487,246.17441
	c69.84473,18.89838,140.39209,67.03772,148.74829,138.8963c15.3291,131.8046-217.70728,339.58163-273.02075,324.75925
	c-55.3175-14.82239-152.80811-308.35208-74.00256-418.0062c40.62085-56.51724,128.36353-64.46954,198.30481-45.90202
	C1356.64465,245.92174,1356.63464,246.00696,1356.61487,246.17441z"/>
</svg>
