
<svg width="15px" height="14px" viewBox="0 0 15 14" version="1.1" xmlns="http://www.w3.org/2000/svg" xmlns:xlink="http://www.w3.org/1999/xlink">
    <!-- Generator: Sketch 46.2 (44496) - http://www.bohemiancoding.com/sketch -->
    <desc>Created with Sketch.</desc>
    <defs></defs>
    <g id="Page-1" stroke="none" stroke-width="1" fill="none" fill-rule="evenodd">
        <g id="Main-View" transform="translate(-272.000000, -349.000000)" fill-rule="nonzero" fill="#F7A700">
            <g id="Group-3" transform="translate(240.000000, 154.000000)">
                <path d="M39.9001021,195.353978 L41.6715255,198.94411 C41.7643435,199.131497 41.9429745,199.261968 42.1505016,199.291739 L46.1119051,199.867036 C46.6337876,199.943217 46.8413147,200.584187 46.4639131,200.951956 L43.5970618,203.746129 C43.4473271,203.892361 43.379027,204.102515 43.4140527,204.309167 L44.0909238,208.254809 C44.1802393,208.774064 43.6347144,209.17073 43.1679973,208.92555 L39.624275,207.062185 C39.4386389,206.964988 39.2179772,206.964988 39.0323411,207.062185 L35.4886188,208.92555 C35.0219017,209.17073 34.4772525,208.77494 34.5656923,208.254809 L35.2425634,204.309167 C35.2775891,204.102515 35.209289,203.892361 35.0595543,203.746129 L32.192703,200.951956 C31.8153014,200.584187 32.0237042,199.943217 32.544711,199.867036 L36.5061145,199.291739 C36.7136416,199.261968 36.8922726,199.131497 36.9850906,198.94411 L38.756514,195.353978 C38.9929372,194.882007 39.6671814,194.882007 39.9001021,195.353978 Z" id="Shape"></path>
            </g>
        </g>
    </g>
</svg>