
<svg width="16px" height="16px" viewBox="0 0 16 16" version="1.1" xmlns="http://www.w3.org/2000/svg" xmlns:xlink="http://www.w3.org/1999/xlink">
    <!-- Generator: Sketch 46.2 (44496) - http://www.bohemiancoding.com/sketch -->
    <desc>Created with Sketch.</desc>
    <defs></defs>
    <g id="Page-1" stroke="none" stroke-width="1" fill="none" fill-rule="evenodd">
        <g id="Main-View" transform="translate(-1054.000000, -20.000000)" fill="#43B02A">
            <g id="Top-Nav---Scrolled">
                <g id="Top-Bar">
                    <g id="Search" transform="translate(349.000000, 10.000000)">
                        <g id="Rectangle-41-+-Shape" transform="translate(683.000000, 0.000000)">
                            <g id="Group-2">
                                <path d="M37.8,24.7 L33.6,20.5 C34.5,19.4 35,18 35,16.5 C35,12.9 32.1,10 28.5,10 C24.9,10 22,12.9 22,16.5 C22,20.1 24.9,23 28.5,23 C30,23 31.4,22.5 32.5,21.6 L36.7,25.8 C37,26.1 37.5,26.1 37.8,25.8 C38.1,25.5 38,25 37.8,24.7 L37.8,24.7 Z M28.5,21.5 C25.7,21.5 23.5,19.3 23.5,16.5 C23.5,13.7 25.7,11.5 28.5,11.5 C31.3,11.5 33.5,13.7 33.5,16.5 C33.5,19.3 31.2,21.5 28.5,21.5 L28.5,21.5 Z" id="Shape"></path>
                            </g>
                        </g>
                    </g>
                </g>
            </g>
        </g>
    </g>
</svg>